<mxfile host="app.diagrams.net" agent="Mozilla/5.0 (Windows NT 10.0; Win64; x64) AppleWebKit/537.36 (KHTML, like Gecko) Chrome/137.0.0.0 Safari/537.36" version="27.1.5" pages="3">
  <diagram name="Page-1" id="6o077t2wP-sycw1w7wJe">
    <mxGraphModel dx="1097" dy="512" grid="1" gridSize="10" guides="1" tooltips="1" connect="1" arrows="1" fold="1" page="1" pageScale="1" pageWidth="850" pageHeight="1100" math="0" shadow="0">
      <root>
        <mxCell id="0" />
        <mxCell id="1" parent="0" />
        <mxCell id="51UM_k2s2s055KL7YghM-1" value="Purpose" style="rounded=0;whiteSpace=wrap;html=1;" vertex="1" parent="1">
          <mxGeometry x="150" y="290" width="120" height="60" as="geometry" />
        </mxCell>
        <mxCell id="51UM_k2s2s055KL7YghM-2" value="Content" style="rounded=0;whiteSpace=wrap;html=1;" vertex="1" parent="1">
          <mxGeometry x="200" y="370" width="120" height="60" as="geometry" />
        </mxCell>
        <mxCell id="51UM_k2s2s055KL7YghM-3" value="cost" style="rounded=0;whiteSpace=wrap;html=1;" vertex="1" parent="1">
          <mxGeometry x="230" y="450" width="140" height="60" as="geometry" />
        </mxCell>
        <mxCell id="51UM_k2s2s055KL7YghM-4" value="audiance&amp;nbsp;" style="rounded=0;whiteSpace=wrap;html=1;" vertex="1" parent="1">
          <mxGeometry x="40" y="130" width="120" height="60" as="geometry" />
        </mxCell>
        <mxCell id="51UM_k2s2s055KL7YghM-5" value="presentation" style="rounded=0;whiteSpace=wrap;html=1;" vertex="1" parent="1">
          <mxGeometry x="80" y="210" width="120" height="60" as="geometry" />
        </mxCell>
      </root>
    </mxGraphModel>
  </diagram>
  <diagram id="JeaQ8TCxSWREqMsD0oIQ" name="Page-2">
    <mxGraphModel dx="1097" dy="512" grid="1" gridSize="10" guides="1" tooltips="1" connect="1" arrows="1" fold="1" page="1" pageScale="1" pageWidth="850" pageHeight="1100" math="0" shadow="0">
      <root>
        <mxCell id="0" />
        <mxCell id="1" parent="0" />
        <mxCell id="HaVSmz0REpb1LP45KHNc-1" value="shell&lt;div&gt;&lt;br&gt;&lt;/div&gt;" style="rounded=0;whiteSpace=wrap;html=1;" vertex="1" parent="1">
          <mxGeometry x="110" y="80" width="120" height="190" as="geometry" />
        </mxCell>
        <mxCell id="HaVSmz0REpb1LP45KHNc-2" value="MFE1" style="rounded=0;whiteSpace=wrap;html=1;" vertex="1" parent="1">
          <mxGeometry x="240" y="80" width="120" height="150" as="geometry" />
        </mxCell>
        <mxCell id="HaVSmz0REpb1LP45KHNc-3" value="Appconfig" style="rounded=1;whiteSpace=wrap;html=1;" vertex="1" parent="1">
          <mxGeometry x="120" y="200" width="80" height="60" as="geometry" />
        </mxCell>
        <mxCell id="HaVSmz0REpb1LP45KHNc-4" value="Appconfig" style="rounded=1;whiteSpace=wrap;html=1;" vertex="1" parent="1">
          <mxGeometry x="260" y="180" width="80" height="40" as="geometry" />
        </mxCell>
      </root>
    </mxGraphModel>
  </diagram>
  <diagram id="JKCDUJduf46hKV6ULY26" name="Page-3">
    <mxGraphModel dx="954" dy="445" grid="1" gridSize="10" guides="1" tooltips="1" connect="1" arrows="1" fold="1" page="1" pageScale="1" pageWidth="850" pageHeight="1100" math="0" shadow="0">
      <root>
        <mxCell id="0" />
        <mxCell id="1" parent="0" />
        <mxCell id="DcLpxaXE4aY6w1engnkc-15" value="" style="ellipse;whiteSpace=wrap;html=1;" vertex="1" parent="1">
          <mxGeometry x="20" y="160" width="230" height="250" as="geometry" />
        </mxCell>
        <mxCell id="DcLpxaXE4aY6w1engnkc-1" value="" style="points=[];aspect=fixed;html=1;align=center;shadow=0;dashed=0;fillColor=#FF6A00;strokeColor=none;shape=mxgraph.alibaba_cloud.ask_ack_container_service_for_kubernetes;" vertex="1" parent="1">
          <mxGeometry x="440" y="20" width="70" height="80.34" as="geometry" />
        </mxCell>
        <mxCell id="DcLpxaXE4aY6w1engnkc-2" value="" style="points=[];aspect=fixed;html=1;align=center;shadow=0;dashed=0;fillColor=#FF6A00;strokeColor=none;shape=mxgraph.alibaba_cloud.ask_ack_container_service_for_kubernetes;" vertex="1" parent="1">
          <mxGeometry x="100" y="10" width="70" height="80.34" as="geometry" />
        </mxCell>
        <mxCell id="DcLpxaXE4aY6w1engnkc-3" value="" style="points=[];aspect=fixed;html=1;align=center;shadow=0;dashed=0;fillColor=#FF6A00;strokeColor=none;shape=mxgraph.alibaba_cloud.ask_ack_container_service_for_kubernetes;" vertex="1" parent="1">
          <mxGeometry x="100" y="10" width="70" height="80.34" as="geometry" />
        </mxCell>
        <mxCell id="DcLpxaXE4aY6w1engnkc-4" value="" style="points=[];aspect=fixed;html=1;align=center;shadow=0;dashed=0;fillColor=#FF6A00;strokeColor=none;shape=mxgraph.alibaba_cloud.ask_ack_container_service_for_kubernetes;" vertex="1" parent="1">
          <mxGeometry x="100" y="10" width="70" height="80.34" as="geometry" />
        </mxCell>
        <mxCell id="DcLpxaXE4aY6w1engnkc-5" value="" style="points=[];aspect=fixed;html=1;align=center;shadow=0;dashed=0;fillColor=#FF6A00;strokeColor=none;shape=mxgraph.alibaba_cloud.ask_ack_container_service_for_kubernetes;" vertex="1" parent="1">
          <mxGeometry x="100" y="10" width="70" height="80.34" as="geometry" />
        </mxCell>
        <mxCell id="DcLpxaXE4aY6w1engnkc-6" value="" style="points=[];aspect=fixed;html=1;align=center;shadow=0;dashed=0;fillColor=#FF6A00;strokeColor=none;shape=mxgraph.alibaba_cloud.ask_ack_container_service_for_kubernetes;" vertex="1" parent="1">
          <mxGeometry x="290" y="10" width="70" height="80.34" as="geometry" />
        </mxCell>
        <mxCell id="DcLpxaXE4aY6w1engnkc-7" value="Fixed Asser" style="text;html=1;align=center;verticalAlign=middle;resizable=0;points=[];autosize=1;strokeColor=none;fillColor=none;" vertex="1" parent="1">
          <mxGeometry x="75" y="98" width="90" height="30" as="geometry" />
        </mxCell>
        <mxCell id="DcLpxaXE4aY6w1engnkc-8" value="Comm" style="text;html=1;align=center;verticalAlign=middle;resizable=0;points=[];autosize=1;strokeColor=none;fillColor=none;" vertex="1" parent="1">
          <mxGeometry x="295" y="100.34" width="60" height="30" as="geometry" />
        </mxCell>
        <mxCell id="DcLpxaXE4aY6w1engnkc-10" value="Auth" style="text;html=1;align=center;verticalAlign=middle;resizable=0;points=[];autosize=1;strokeColor=none;fillColor=none;" vertex="1" parent="1">
          <mxGeometry x="435" y="108" width="50" height="30" as="geometry" />
        </mxCell>
        <mxCell id="DcLpxaXE4aY6w1engnkc-13" value="" style="ellipse;whiteSpace=wrap;html=1;aspect=fixed;" vertex="1" parent="1">
          <mxGeometry x="95" y="210" width="125" height="125" as="geometry" />
        </mxCell>
        <mxCell id="DcLpxaXE4aY6w1engnkc-12" value="BI brain" style="ellipse;whiteSpace=wrap;html=1;aspect=fixed;" vertex="1" parent="1">
          <mxGeometry x="117.5" y="232.5" width="80" height="80" as="geometry" />
        </mxCell>
        <mxCell id="DcLpxaXE4aY6w1engnkc-14" value="1- confirm ar_order" style="text;html=1;align=center;verticalAlign=middle;whiteSpace=wrap;rounded=0;" vertex="1" parent="1">
          <mxGeometry x="190" y="202.5" width="60" height="30" as="geometry" />
        </mxCell>
        <mxCell id="DcLpxaXE4aY6w1engnkc-16" value="APIs" style="text;html=1;align=center;verticalAlign=middle;whiteSpace=wrap;rounded=0;" vertex="1" parent="1">
          <mxGeometry x="40" y="172.5" width="60" height="30" as="geometry" />
        </mxCell>
        <mxCell id="DcLpxaXE4aY6w1engnkc-24" style="edgeStyle=orthogonalEdgeStyle;rounded=0;orthogonalLoop=1;jettySize=auto;html=1;" edge="1" parent="1" source="DcLpxaXE4aY6w1engnkc-17">
          <mxGeometry relative="1" as="geometry">
            <mxPoint x="444" y="282.5" as="targetPoint" />
          </mxGeometry>
        </mxCell>
        <mxCell id="DcLpxaXE4aY6w1engnkc-17" value="" style="rounded=0;whiteSpace=wrap;html=1;" vertex="1" parent="1">
          <mxGeometry x="500" y="172.5" width="120" height="220" as="geometry" />
        </mxCell>
        <mxCell id="DcLpxaXE4aY6w1engnkc-20" value="" style="image;html=1;image=img/lib/clip_art/general/Empty_Folder_128x128.png" vertex="1" parent="1">
          <mxGeometry x="520" y="196" width="80" height="34" as="geometry" />
        </mxCell>
        <mxCell id="DcLpxaXE4aY6w1engnkc-22" value="" style="image;html=1;image=img/lib/clip_art/general/Empty_Folder_128x128.png" vertex="1" parent="1">
          <mxGeometry x="520" y="255.5" width="80" height="34" as="geometry" />
        </mxCell>
        <mxCell id="DcLpxaXE4aY6w1engnkc-23" value="" style="image;html=1;image=img/lib/clip_art/general/Empty_Folder_128x128.png" vertex="1" parent="1">
          <mxGeometry x="530" y="312.5" width="80" height="34" as="geometry" />
        </mxCell>
        <mxCell id="DcLpxaXE4aY6w1engnkc-26" value="" style="shadow=0;dashed=0;html=1;strokeColor=none;fillColor=#4495D1;labelPosition=center;verticalLabelPosition=bottom;verticalAlign=top;align=center;outlineConnect=0;shape=mxgraph.veeam.tape_library;" vertex="1" parent="1">
          <mxGeometry x="328" y="250" width="96.8" height="98" as="geometry" />
        </mxCell>
        <mxCell id="DcLpxaXE4aY6w1engnkc-35" style="edgeStyle=orthogonalEdgeStyle;rounded=0;orthogonalLoop=1;jettySize=auto;html=1;" edge="1" parent="1" source="DcLpxaXE4aY6w1engnkc-27" target="DcLpxaXE4aY6w1engnkc-31">
          <mxGeometry relative="1" as="geometry" />
        </mxCell>
        <mxCell id="DcLpxaXE4aY6w1engnkc-27" value="" style="rounded=0;whiteSpace=wrap;html=1;" vertex="1" parent="1">
          <mxGeometry x="392" y="410" width="120" height="220" as="geometry" />
        </mxCell>
        <mxCell id="DcLpxaXE4aY6w1engnkc-31" value="" style="shadow=0;dashed=0;html=1;strokeColor=none;fillColor=#4495D1;labelPosition=center;verticalLabelPosition=bottom;verticalAlign=top;align=center;outlineConnect=0;shape=mxgraph.veeam.tape_library;" vertex="1" parent="1">
          <mxGeometry x="220" y="487.5" width="96.8" height="98" as="geometry" />
        </mxCell>
        <mxCell id="DcLpxaXE4aY6w1engnkc-32" value="" style="shadow=0;dashed=0;html=1;strokeColor=none;fillColor=#4495D1;labelPosition=center;verticalLabelPosition=bottom;verticalAlign=top;align=center;outlineConnect=0;shape=mxgraph.veeam.tape_library;" vertex="1" parent="1">
          <mxGeometry x="422" y="420" width="96.8" height="60" as="geometry" />
        </mxCell>
        <mxCell id="DcLpxaXE4aY6w1engnkc-33" value="" style="shadow=0;dashed=0;html=1;strokeColor=none;fillColor=#4495D1;labelPosition=center;verticalLabelPosition=bottom;verticalAlign=top;align=center;outlineConnect=0;shape=mxgraph.veeam.tape_library;" vertex="1" parent="1">
          <mxGeometry x="422" y="490" width="96.8" height="60" as="geometry" />
        </mxCell>
        <mxCell id="DcLpxaXE4aY6w1engnkc-34" value="" style="shadow=0;dashed=0;html=1;strokeColor=none;fillColor=#4495D1;labelPosition=center;verticalLabelPosition=bottom;verticalAlign=top;align=center;outlineConnect=0;shape=mxgraph.veeam.tape_library;" vertex="1" parent="1">
          <mxGeometry x="422" y="560" width="96.8" height="60" as="geometry" />
        </mxCell>
      </root>
    </mxGraphModel>
  </diagram>
</mxfile>
